# xmcd CD database file
#
# Track frame offsets:
#	150
#	16805
#	39147
#
# Disc length: 811 seconds
#
# Revision: 1
# Processed by: cddbd v1.5.1PL0 Copyright (c) Steve Scherf et al.
# Submitted via: CDex 1.51
#
DISCID=12032903
DTITLE=石橋凌 - カクテル・トゥナイト
DYEAR=2002
DGENRE=
TTITLE0=カクテル・トゥナイト
TTITLE1=乾いた花
TTITLE2=12の頃
EXTD=YEAR: 2002
EXTT0=
EXTT1=
EXTT2=
PLAYORDER=
